# AST/ASF file generated using VICON BodyLanguage
# -----------------------------------------------
:version 1.10
:name VICON
:units
  mass 1.0
  length 0.45
  angle deg
:documentation
   .ast/.asf automatically generated from VICON data using
   VICON BodyBuilder and BodyLanguage model FoxedUp or BRILLIANT.MOD
:root
   order TX TY TZ RX RY RZ
   axis XYZ
   position 0 0 0  
   orientation 0 0 0 
:bonedata
  begin
     id 1 
     name lhipjoint
     direction 0.521452 -0.77106 0.36545 
     length 2.0933 
     axis 0 0 0  XYZ
  end
  begin
     id 2 
     name lfemur
     direction 0.34202 -0.939693 0  
     length 6.83441  
     axis 0 0 20  XYZ
    dof rx ry rz
    limits (-160.0 20.0)
           (-70.0 70.0)
           (-60.0 70.0)
  end
  begin
     id 3 
     name ltibia
     direction 0.34202 -0.939693 0   
     length 7.28749   
     axis 0 0 20   XYZ
    dof rx
    limits (-10.0 170.0)
  end
  begin
     id 4 
     name lfoot
     direction 0.100608 -0.276418 0.955757   
     length 1.52195   
     axis -90 7.62852e-016 20   XYZ
    dof rx rz
    limits (-45.0 90.0)
           (-70.0 20.0)
  end
  begin
     id 5 
     name ltoes
     direction 1.53558e-011 -4.21907e-011 1   
     length 0.770459   
     axis -90 7.62852e-016 20   XYZ
    dof rx
    limits (-90.0 20.0)
  end
  begin
     id 6 
     name rhipjoint
     direction -0.488071 -0.788702 0.373812   
     length 2.04648  
     axis 0 0 0  XYZ 
  end
  begin
     id 7 
     name rfemur
     direction -0.34202 -0.939693 0   
     length 6.92583   
     axis 0 0 -20   XYZ
    dof rx ry rz
    limits (-160.0 20.0)
           (-70.0 70.0)
           (-70.0 60.0)
  end
  begin
     id 8 
     name rtibia
     direction -0.34202 -0.939693 0   
     length 7.41043   
     axis 0 0 -20   XYZ
    dof rx
    limits (-10.0 170.0)
 end
 begin
     id 9 
     name rfoot
     direction -0.0784433 -0.215521 0.973343   
     length 1.67708  
     axis -90 -7.62852e-016 -20   XYZ
    dof rx rz
    limits (-45.0 90.0)
           (-20.0 70.0)
  end
  begin
     id 10 
     name rtoes
     direction -1.53551e-011 -4.21842e-011 1   
     length 0.849787   
     axis -90 -7.62852e-016 -20   XYZ
    dof rx
    limits (-90.0 20.0)
  end
  begin
     id 11 
     name lowerback
     direction -0.0122332 0.997575 -0.0685192   
     length 1.98724   
     axis 0 0 0   XYZ
    dof rx ry rz
    limits (-20.0 45.0)
           (-30.0 30.0)
           (-30.0 30.0)
  end
  begin
     id 12 
     name upperback
     direction 0.0182347 0.999724 -0.0148421   
     length 1.99029   
     axis 0 0 0   XYZ
    dof rx ry rz
    limits (-20.0 45.0)
           (-30.0 30.0)
           (-30.0 30.0)
  end
  begin
     id 13 
     name thorax
     direction 0.0242908 0.99956 0.0170184   
     length 1.99573   
     axis 0 0 0   XYZ
    dof rx ry rz
    limits (-20.0 45.0)
           (-30.0 30.0)
           (-30.0 30.0)
  end
  begin
     id 14 
     name lowerneck
     direction 0.0654488 0.985533 0.156338   
     length 1.4285   
     axis 0 0 0   XYZ
    dof rx ry rz
    limits (-20.0 45.0)
           (-30.0 30.0)
           (-30.0 30.0)
  end
  begin
     id 15 
     name upperneck
     direction -0.02953 0.998556 -0.0448842   
     length 1.44709   
     axis 0 0 0   XYZ
    dof rx ry rz
    limits (-20.0 45.0)
           (-30.0 30.0)
           (-30.0 30.0)
  end
  begin
     id 16
     name head
     direction -0.0155588 0.999386 -0.0314063  
     length 1.44689  
     axis 0 0 0   XYZ
    dof rx ry rz
    limits (-20.0 45.0)
           (-30.0 30.0)
           (-30.0 30.0)
  end
  begin
     id 17 
     name lclavicle
     direction 0.968229 0.236071 -0.0824755  
     length 3.60593  
     axis 0 0 0   XYZ
    dof ry rz
    limits (-20.0 10.0)
           (0.0 20.0)
  end
  begin
     id 18 
     name lhumerus
     direction 1 -4.48968e-011 7.8138e-029   
     length 5.06035   
     axis 180 -30 -90   XYZ
    dof rx ry rz
    limits (-60.0 90.0)
           (-90.0 90.0)
           (-90.0 90.0)
  end
  begin
     id 19
     name lradius
     direction 1 -4.48967e-011 9.02887e-028   
     length 3.1478   
     axis 180 -30 -90   XYZ
    dof rx
    limits (-10.0 170.0)
  end
  begin
     id 20
     name lwrist
     direction 1 -4.48961e-011 7.20928e-028   
     length 1.5739   
     axis -5.52449e-016 90 90   XYZ
    dof ry
    limits (-180.0 0.0)
 end
  begin
     id 21 
     name lhand
     direction 1 -4.48972e-011 1.44186e-027   
     length 0.606747   
     axis -9.20027e-016 90 90   XYZ
    dof rx rz
    limits (-90.0 90.0)
           (-45.0 45.0)
  end
  begin
     id 22 
     name lfingers
     direction 1 -4.48943e-011 2.88371e-027   
     length 0.489175   
     axis -1.84005e-015 90 90   XYZ
    dof rx
    limits (0.0 90.0)
  end
  begin
     id 23
     name lthumb
     direction 0.707107 -6.34917e-011 0.707107   
     length 0.70236   
     axis -90 45 2.85299e-015   XYZ
    dof rx rz
    limits (-45.0 45.0)
           (-45.0 45.0)
  end
  begin
     id 24 
     name rclavicle
     direction -0.978165 0.207816 0.0022268   
     length 3.35425  
     axis 0 0 0   XYZ 
    dof ry rz
    limits (-10.0 20.0)
           (-20.0 0.0)
  end
  begin
     id 25 
     name rhumerus
     direction -1 -4.48964e-011 -4.02159e-027  
     length 5.12273   
     axis 180 30 90   XYZ
    dof rx ry rz
    limits (-90.0 60.0)
           (-90.0 90.0)
           (-90.0 90.0)
  end
  begin
     id 26 
     name rradius
     direction -1 -4.48966e-011 1.62746e-027   
     length 3.422   
     axis 180 30 90   XYZ
    dof rx
    limits (-10.0 170.0)
  end
  begin
     id 27 
     name rwrist
     direction -1 -4.4896e-011 7.20928e-028   
     length 1.711   
     axis -5.52449e-016 -90 -90   XYZ
    dof ry
    limits (-180.0 0.0)
  end
  begin
     id 28
     name rhand
     direction -1 -4.48979e-011 1.44186e-027   
     length 0.704599   
     axis -9.20027e-016 -90 -90   XYZ
    dof rx rz
    limits (-90.0 90.0)
           (-45.0 45.0)
  end
  begin
     id 29
     name rfingers
     direction -1 -4.48962e-011 2.88371e-027   
     length 0.568066   
     axis -1.84005e-015 -90 -90   XYZ
    dof rx
    limits (0.0 90.0)
  end
  begin
     id 30
     name rthumb
     direction -0.707107 -6.34949e-011 0.707107   
     length 0.815633   
     axis -90 -45 -2.85299e-015   XYZ
    dof rx rz
    limits (-45.0 45.0)
           (-45.0 45.0)
  end
:hierarchy
  begin
    root lhipjoint rhipjoint lowerback
    lhipjoint lfemur
    lfemur ltibia
    ltibia lfoot
    lfoot ltoes
    rhipjoint rfemur
    rfemur rtibia
    rtibia rfoot
    rfoot rtoes
    lowerback upperback
    upperback thorax
    thorax lowerneck lclavicle rclavicle
    lowerneck upperneck
    upperneck head
    lclavicle lhumerus
    lhumerus lradius
    lradius lwrist
    lwrist lhand lthumb
    lhand lfingers
    rclavicle rhumerus
    rhumerus rradius
    rradius rwrist
    rwrist rhand rthumb
    rhand rfingers
  end

#!OML:ASF E:\id_vita\Project 1\Capture day 1\Session 1\Male1.ASF
:FULLY-SPECIFIED
:DEGREES
1054
root 19.2712 2.77924 4.58925 127.218 87.9976 156.105
lowerback 40.4606 -0.562438 -3.89756
upperback 18.7447 0.983077 -1.12084
thorax 1.42634 1.59862 0.528632
lowerneck -2.60249 13.7714 16.8911
upperneck -6.72307 17.951 -10.7756
head 0.846134 8.91008 -5.17957
rclavicle -1.19271e-015 -1.78906e-015
rhumerus 56.9706 -8.82501 -48.9271
rradius 128.324
rwrist -28.7901
rhand -38.2366 -288.926
rfingers 7.12502
rthumb -11.2674 41.397
lclavicle -1.19271e-015 -1.78906e-015
lhumerus 72.5857 -30.0677 -7.07932
lradius 48.2651
lwrist 31.3548
lhand 6.17372 46.4333
lfingers 7.12502
lthumb 31.4888 73.7405
rfemur -104.151 -14.7858 41.2977
rtibia 94.5381
rfoot 2.6236 16.9461
rtoes -18.408
lfemur -98.8653 17.5602 -36.858
ltibia 77.6878
lfoot 30.3544 7.17834
ltoes 40.6154
1055
root 19.2724 2.77955 4.58904 126.383 87.9721 155.264
lowerback 40.4542 -0.550233 -3.93165
upperback 18.7436 0.985921 -1.12368
thorax 1.42754 1.59755 0.542231
lowerneck -2.60755 13.7697 16.8512
upperneck -6.70909 17.9503 -10.7254
head 0.842318 8.90993 -5.15942
rclavicle 4.77083e-015 2.98177e-015
rhumerus 56.9267 -8.8955 -48.945
rradius 128.619
rwrist -28.6084
rhand -38.5535 -288.341
rfingers 7.12502
rthumb -11.5731 41.9987
lclavicle 4.77083e-015 2.98177e-015
lhumerus 72.5705 -30.0777 -7.07162
lradius 48.3035
lwrist 31.3806
lhand 6.26557 46.4903
lfingers 7.12502
lthumb 31.5763 73.7803
rfemur -104.164 -14.792 41.2436
rtibia 94.5665
rfoot 2.52965 16.9755
rtoes -17.8733
lfemur -98.8676 17.5682 -36.9133
ltibia 77.6941
lfoot 30.3299 7.19734
ltoes 40.6826
1056
root 19.2735 2.77998 4.58855 125.739 87.9424 154.621
lowerback 40.454 -0.544724 -3.96191
upperback 18.7418 0.981849 -1.12975
thorax 1.4265 1.59373 0.552541
lowerneck -2.61584 13.7697 16.8508
upperneck -6.68048 17.9494 -10.7095
head 0.850277 8.90925 -5.15302
rclavicle 5.76476e-015 -9.14409e-015
rhumerus 56.9118 -8.9482 -48.9825
rradius 128.867
rwrist -28.4661
rhand -38.7461 -287.984
rfingers 7.12502
rthumb -11.7589 42.3659
lclavicle 5.76476e-015 -9.14409e-015
lhumerus 72.551 -30.0947 -7.05548
lradius 48.333
lwrist 31.4079
lhand 6.30009 46.5175
lfingers 7.12502
lthumb 31.6092 73.801
rfemur -104.174 -14.8125 41.1913
rtibia 94.5959
rfoot 2.43947 17.005
rtoes -17.3905
lfemur -98.8598 17.5691 -36.9648
ltibia 77.6984
lfoot 30.3083 7.19392
ltoes 40.6587
1057
root 19.2742 2.78049 4.58798 125.637 87.9264 154.524
lowerback 40.4554 -0.548958 -3.9703
upperback 18.7411 0.973659 -1.13308
thorax 1.42575 1.58934 0.555902
lowerneck -2.63892 13.7731 16.8669
upperneck -6.63333 17.9504 -10.7052
head 0.868862 8.90912 -5.14981
rclavicle 7.15625e-015 1.35174e-014
rhumerus 56.9372 -8.98252 -49.0444
rradius 129.065
rwrist -28.3655
rhand -38.7874 -287.876
rfingers 7.12502
rthumb -11.7986 42.4765
lclavicle 7.15625e-015 1.35174e-014
lhumerus 72.5305 -30.1141 -7.03496
lradius 48.3493
lwrist 31.4245
lhand 6.27317 46.5152
lfingers 7.12502
lthumb 31.5836 73.8038
rfemur -104.178 -14.8389 41.1698
rtibia 94.6156
rfoot 2.41336 17.011
rtoes -17.3096
lfemur -98.8529 17.5637 -36.9901
ltibia 77.7019
lfoot 30.3045 7.15458
ltoes 40.5397
1058
root 19.274 2.78102 4.58747 126.195 87.9376 155.086
lowerback 40.4557 -0.561802 -3.94607
upperback 18.7408 0.966214 -1.12884
thorax 1.42485 1.58702 0.550361
lowerneck -2.68256 13.7781 16.8758
upperneck -6.57001 17.9507 -10.689
head 0.893463 8.90841 -5.14009
rclavicle -4.77083e-015 -1.27222e-014
rhumerus 56.9933 -9.00171 -49.1275
rradius 129.23
rwrist -28.2959
rhand -38.7088 -287.934
rfingers 7.12502
rthumb -11.7229 42.4141
lclavicle -4.77083e-015 -1.27222e-014
lhumerus 72.5164 -30.1338 -7.01801
lradius 48.3516
lwrist 31.4252
lhand 6.21714 46.4935
lfingers 7.12502
lthumb 31.5302 73.7925
rfemur -104.176 -14.8587 41.1921
rtibia 94.6185
rfoot 2.46215 16.9897
rtoes -17.5422
lfemur -98.8538 17.5535 -36.9703
ltibia 77.7041
lfoot 30.3189 7.09534
ltoes 40.3781
1059
root 19.2735 2.78159 4.58715 127.086 87.9661 155.974
lowerback 40.4504 -0.576226 -3.90679
upperback 18.7421 0.962281 -1.11785
thorax 1.42689 1.58685 0.543308
lowerneck -2.72907 13.7883 16.8476
upperneck -6.51544 17.9595 -10.6392
head 0.910294 8.91235 -5.11565
rclavicle 1.39149e-014 7.15625e-015
rhumerus 57.0674 -9.01161 -49.2232
rradius 129.38
rwrist -28.2529
rhand -38.5346 -288.05
rfingers 7.12502
rthumb -11.5549 42.2889
lclavicle 1.39149e-014 7.15625e-015
lhumerus 72.51 -30.1486 -7.01173
lradius 48.3467
lwrist 31.4195
lhand 6.1544 46.4682
lfingers 7.12502
lthumb 31.4704 73.7789
rfemur -104.169 -14.8679 41.2361
rtibia 94.6072
rfoot 2.51802 16.9654
rtoes -17.7044
lfemur -98.8604 17.5409 -36.9203
ltibia 77.7043
lfoot 30.3397 7.04845
ltoes 40.2683
1060
root 19.2728 2.78215 4.58704 127.858 87.9919 156.738
lowerback 40.4379 -0.585561 -3.87902
upperback 18.7468 0.961273 -1.10377
thorax 1.43493 1.58699 0.544704
lowerneck -2.74776 13.8097 16.764
upperneck -6.50385 17.9896 -10.5543
head 0.904308 8.92808 -5.07635
rclavicle -2.98177e-015 -6.36111e-015
rhumerus 57.1576 -9.01636 -49.3144
rradius 129.512
rwrist -28.2318
rhand -38.2879 -288.161
rfingers 7.12502
rthumb -11.317 42.1642
lclavicle -2.98177e-015 -6.36111e-015
lhumerus 72.5011 -30.1533 -7.01036
lradius 48.3432
lwrist 31.4152
lhand 6.08481 46.4541
lfingers 7.12502
lthumb 31.4041 73.7778
rfemur -104.162 -14.8716 41.268
rtibia 94.5902
rfoot 2.5334 16.9609
rtoes -17.5662
lfemur -98.8661 17.5268 -36.8687
ltibia 77.7018
lfoot 30.3524 7.04097
ltoes 40.2705
1061
root 19.2723 2.78266 4.58709 128.273 88.0023 157.141
lowerback 40.4265 -0.587889 -3.87272
upperback 18.7497 0.961139 -1.09016
thorax 1.44108 1.58596 0.556207
lowerneck -2.74335 13.8342 16.6482
upperneck -6.52762 18.0287 -10.4557
head 0.881198 8.94908 -5.03179
rclavicle 8.34896e-015 -1.39149e-015
rhumerus 57.2544 -9.01957 -49.3831
rradius 129.622
rwrist -28.2182
rhand -38.0248 -288.244
rfingers 7.12502
rthumb -11.0632 42.0678
lclavicle 8.34896e-015 -1.39149e-015
lhumerus 72.4853 -30.1514 -7.00568
lradius 48.3457
lwrist 31.4182
lhand 6.01156 46.4563
lfingers 7.12502
lthumb 31.3343 73.7935
rfemur -104.16 -14.8773 41.2724
rtibia 94.5768
rfoot 2.4996 16.983
rtoes -17.0176
lfemur -98.8708 17.5116 -36.8374
ltibia 77.6978
lfoot 30.3537 7.06306
ltoes 40.3451
1062
root 19.2723 2.78301 4.58726 128.34 87.9917 157.191
lowerback 40.4224 -0.584822 -3.88579
upperback 18.7455 0.959634 -1.07857
thorax 1.43757 1.58287 0.575539
lowerneck -2.73702 13.8543 16.5243
upperneck -6.55957 18.0625 -10.3502
head 0.853216 8.96747 -4.98537
rclavicle -1.43125e-014 -6.16232e-015
rhumerus 57.3395 -9.02484 -49.4248
rradius 129.711
rwrist -28.2062
rhand -37.8039 -288.277
rfingers 7.12502
rthumb -10.8501 42.0233
lclavicle -1.43125e-014 -6.16232e-015
lhumerus 72.4696 -30.1517 -6.99836
lradius 48.3548
lwrist 31.4339
lhand 5.95029 46.4725
lfingers 7.12502
lthumb 31.2759 73.821
rfemur -104.171 -14.8901 41.2514
rtibia 94.5748
rfoot 2.43671 17.0171
rtoes -16.2252
lfemur -98.8782 17.4946 -36.8408
ltibia 77.6948
lfoot 30.3502 7.08738
ltoes 40.4321
1063
root 19.2733 2.78309 4.58741 128.265 87.9704 157.097
lowerback 40.4224 -0.579501 -3.90499
upperback 18.7346 0.957473 -1.06781
thorax 1.4255 1.57889 0.597034
lowerneck -2.74398 13.8686 16.4
upperneck -6.57617 18.0872 -10.2285
head 0.828928 8.98099 -4.93365
rclavicle -1.09332e-014 -1.23246e-014
rhumerus 57.4036 -9.03076 -49.4487
rradius 129.792
rwrist -28.2083
rhand -37.6536 -288.276
rfingers 7.12502
rthumb -10.7052 42.0167
lclavicle -1.09332e-014 -1.23246e-014
lhumerus 72.4613 -30.1619 -6.98911
lradius 48.3654
lwrist 31.4553
lhand 5.90802 46.4944
lfingers 7.12502
lthumb 31.2357 73.8507
rfemur -104.196 -14.9036 41.2257
rtibia 94.5859
rfoot 2.38577 17.0381
rtoes -15.6486
lfemur -98.8891 17.4776 -36.8664
ltibia 77.6944
lfoot 30.3447 7.11541
ltoes 40.5302
1064
root 19.275 2.7829 4.5873 128.148 87.957 156.959
lowerback 40.4212 -0.573615 -3.91595
upperback 18.7172 0.957081 -1.05927
thorax 1.40624 1.57612 0.611213
lowerneck -2.77551 13.8725 16.2908
upperneck -6.5541 18.0948 -10.0836
head 0.816589 8.98511 -4.87534
rclavicle 1.05356e-014 -9.54166e-015
rhumerus 57.4403 -9.0326 -49.4706
rradius 129.88
rwrist -28.2468
rhand -37.5646 -288.256
rfingers 7.12502
rthumb -10.6193 42.0321
lclavicle 1.05356e-014 -9.54166e-015
lhumerus 72.4591 -30.1893 -6.97276
lradius 48.3697
lwrist 31.4677
lhand 5.8918 46.5107
lfingers 7.12502
lthumb 31.2202 73.87
rfemur -104.23 -14.9041 41.2192
rtibia 94.6047
rfoot 2.3606 17.0287
rtoes -15.6175
lfemur -98.9051 17.4657 -36.8898
ltibia 77.6976
lfoot 30.3353 7.16207
ltoes 40.6536
